Coordinates
version=1
nRows=10
nColumns=40
inDegrees=yes

Units are S.I. units (second, meters, Newtons, ...)
If the header above contains a line with 'inDegrees', this indicates whether rotational values are in degrees (yes) or radians (no).

endheader
time	pelvis_tilt	pelvis_list	pelvis_rotation	pelvis_tx	pelvis_ty	pelvis_tz	hip_flexion_r	hip_adduction_r	hip_rotation_r	knee_angle_r	knee_angle_r_beta	ankle_angle_r	subtalar_angle_r	mtp_angle_r	hip_flexion_l	hip_adduction_l	hip_rotation_l	knee_angle_l	knee_angle_l_beta	ankle_angle_l	subtalar_angle_l	mtp_angle_l	lumbar_extension	lumbar_bending	lumbar_rotation	arm_flex_r	arm_add_r	arm_rot_r	elbow_flex_r	pro_sup_r	wrist_flex_r	wrist_dev_r	arm_flex_l	arm_add_l	arm_rot_l	elbow_flex_l	pro_sup_l	wrist_flex_l	wrist_dev_l
      3.65500000	    -36.53259233	      4.51860751	     -7.17450723	     -0.40415170	      0.62413208	     -0.89654511	    105.89605540	    -14.75288292	      9.98353811	    102.23616096	      1.78435762	     32.89671641	      0.00000000	      0.00000000	    103.11678706	    -29.54295450	      4.01087242	    103.85370059	      1.81258902	     40.00597591	      0.00000000	      0.00000000	    -20.26424087	     -5.95847901	      5.33986062	     17.42641752	    -53.28656961	     89.55413393	     89.46237503	     88.69204459	      0.00000000	      0.00000000	     21.76781814	    -57.45282932	     89.57388779	     96.89101160	     88.53093501	      0.00000000	      0.00000000
      3.66000000	    -36.61029889	      4.51413552	     -7.18951077	     -0.40371146	      0.62584221	     -0.89651533	    105.73141778	    -14.70369711	      9.90844752	    101.98181546	      1.77991846	     32.85196964	      0.00000000	      0.00000000	    102.93774519	    -29.47191849	      3.95053657	    103.58638226	      1.80792343	     39.95231848	      0.00000000	      0.00000000	    -20.10915186	     -5.93200195	      5.35717800	     17.40266772	    -53.28296739	     89.54382229	     89.45412910	     88.69327978	      0.00000000	      0.00000000	     21.73830440	    -57.40848403	     89.56535149	     96.84015412	     88.52521883	      0.00000000	      0.00000000
      3.66500000	    -36.74911194	      4.49654842	     -7.19936459	     -0.40331198	      0.62773749	     -0.89649173	    105.58446069	    -14.66059967	      9.79330718	    101.65026390	      1.77413179	     32.81097561	      0.00000000	      0.00000000	    102.78548164	    -29.40371713	      3.85893789	    103.23940639	      1.80186756	     39.89615626	      0.00000000	      0.00000000	    -19.88379185	     -5.88450260	      5.40564314	     17.45295270	    -53.26187726	     89.54799175	     89.44632460	     88.69016103	      0.00000000	      0.00000000	     21.81445776	    -57.29085103	     89.56839125	     96.67952227	     88.51080491	      0.00000000	      0.00000000
      3.67000000	    -36.85905033	      4.48460690	     -7.21982488	     -0.40282548	      0.62970301	     -0.89645649	    105.41247444	    -14.61187072	      9.69427447	    101.34760407	      1.76884938	     32.76633523	      0.00000000	      0.00000000	    102.60193711	    -29.32926619	      3.79227508	    102.92429784	      1.79636788	     39.83793442	      0.00000000	      0.00000000	    -19.65671655	     -5.84507367	      5.43731063	     17.45527616	    -53.24251916	     89.54673931	     89.42360028	     88.69000714	      0.00000000	      0.00000000	     21.83431946	    -57.22370575	     89.56935071	     96.55896940	     88.50971816	      0.00000000	      0.00000000
      3.67500000	    -36.97014518	      4.46758203	     -7.22416072	     -0.40244224	      0.63187610	     -0.89641621	    105.21600188	    -14.56796706	      9.57996608	    100.98862435	      1.76258400	     32.71399364	      0.00000000	      0.00000000	    102.39680679	    -29.23499776	      3.70855217	    102.55213552	      1.78987242	     39.79042155	      0.00000000	      0.00000000	    -19.45341539	     -5.81111635	      5.46558635	     17.51072726	    -53.22646420	     89.55198350	     89.38729777	     88.68620673	      0.00000000	      0.00000000	     21.86179334	    -57.12068081	     89.57490558	     96.38155303	     88.50671438	      0.00000000	      0.00000000
      3.68000000	    -37.07842887	      4.45216565	     -7.22603926	     -0.40191723	      0.63406997	     -0.89635058	    105.01673697	    -14.54298976	      9.46731330	    100.64974034	      1.75666936	     32.65282461	      0.00000000	      0.00000000	    102.17797875	    -29.15057955	      3.61155586	    102.18321162	      1.78343348	     39.73564372	      0.00000000	      0.00000000	    -19.19290479	     -5.76915713	      5.51830238	     17.51196527	    -53.19270554	     89.55147727	     89.34180962	     88.68696124	      0.00000000	      0.00000000	     21.89931592	    -57.00462116	     89.57466881	     96.21363254	     88.50724527	      0.00000000	      0.00000000
      3.68500000	    -37.19868678	      4.45767682	     -7.24395012	     -0.40135803	      0.63627591	     -0.89625961	    104.83266956	    -14.50121252	      9.35384900	    100.27798275	      1.75018097	     32.59064995	      0.00000000	      0.00000000	    101.94950566	    -29.07295126	      3.51901129	    101.81426710	      1.77699419	     39.67426203	      0.00000000	      0.00000000	    -18.91615807	     -5.74669273	      5.54502219	     17.52769630	    -53.16427135	     89.55065749	     89.29162065	     88.68376225	      0.00000000	      0.00000000	     21.87177522	    -56.90780671	     89.57971322	     96.03472314	     88.50947936	      0.00000000	      0.00000000
      3.69000000	    -37.31753152	      4.44969768	     -7.24436979	     -0.40086397	      0.63867964	     -0.89616812	    104.62295868	    -14.47967432	      9.22351785	     99.89334439	      1.74346776	     32.52450803	      0.00000000	      0.00000000	    101.71777489	    -28.99470683	      3.40066089	    101.40416387	      1.76983653	     39.60262337	      0.00000000	      0.00000000	    -18.64825003	     -5.71759207	      5.57638833	     17.55094481	    -53.15628702	     89.54856362	     89.24073626	     88.67985921	      0.00000000	      0.00000000	     21.87703562	    -56.81578308	     89.57861324	     95.84013679	     88.51304981	      0.00000000	      0.00000000
      3.69500000	    -37.43233338	      4.45997451	     -7.26071158	     -0.40023272	      0.64107962	     -0.89602680	    104.41151665	    -14.44849196	      9.10774437	     99.51613774	      1.73688426	     32.44845098	      0.00000000	      0.00000000	    101.46114987	    -28.91227960	      3.29193523	    101.00073292	      1.76279534	     39.53705078	      0.00000000	      0.00000000	    -18.33496504	     -5.70987066	      5.60688422	     17.57940206	    -53.09655316	     89.54776484	     89.19297599	     88.67754133	      0.00000000	      0.00000000	     21.87318162	    -56.70466296	     89.57847985	     95.62465196	     88.51561055	      0.00000000	      0.00000000
      3.70000000	    -37.54248664	      4.44557334	     -7.25175527	     -0.39949546	      0.64354905	     -0.89592802	    104.18339702	    -14.44822122	      8.97446064	     99.16430660	      1.73074365	     32.38611448	      0.00000000	      0.00000000	    101.22847917	    -28.85901852	      3.16761041	    100.63455879	      1.75640439	     39.44279836	      0.00000000	      0.00000000	    -18.04110343	     -5.66726506	      5.62715883	     17.51427760	    -53.06251496	     89.53930339	     89.17529888	     88.67669665	      0.00000000	      0.00000000	     21.75641643	    -56.64954877	     89.57850360	     95.50059688	     88.51961109	      0.00000000	      0.00000000
